HIERARCHY
ROOT locator2
{
  OFFSET 53.6172 30.1899 0.816905
  CHANNELS 6 Xposition Yposition Zposition Zrotation Xrotation Yrotation
  JOINT koshi
  {
    OFFSET 0 0 0
    CHANNELS 6 Xposition Yposition Zposition Zrotation Xrotation Yrotation
    JOINT sippo01
    {
      OFFSET 0 42.8363 -0.548134
      CHANNELS 6 Xposition Yposition Zposition Zrotation Xrotation Yrotation
      JOINT sippo02
      {
        OFFSET 0 44.0461 -3.28882
        CHANNELS 6 Xposition Yposition Zposition Zrotation Xrotation Yrotation
        JOINT sippo03
        {
          OFFSET 0 34.1929 -2.46662
          CHANNELS 6 Xposition Yposition Zposition Zrotation Xrotation Yrotation
          JOINT sippo04
          {
            OFFSET 0 30.0959 -1.75404
            CHANNELS 6 Xposition Yposition Zposition Zrotation Xrotation Yrotation
            JOINT sippo05
            {
              OFFSET 0 28.3637 -1.75404
              CHANNELS 6 Xposition Yposition Zposition Zrotation Xrotation Yrotation
              JOINT sippo06
              {
                OFFSET 0 31.6071 -3.2043
                CHANNELS 6 Xposition Yposition Zposition Zrotation Xrotation Yrotation
                End Site
                {
                  OFFSET 0 0 0
                }
              }
            }
          }
        }
      }
    }
    JOINT R_momo
    {
      OFFSET -27.891 13.5892 3.92723
      CHANNELS 6 Xposition Yposition Zposition Zrotation Xrotation Yrotation
      JOINT R_hiza
      {
        OFFSET 0 28.01 1.8232
        CHANNELS 6 Xposition Yposition Zposition Zrotation Xrotation Yrotation
        JOINT R_ashi
        {
          OFFSET 0 24.3992 -2.49174
          CHANNELS 6 Xposition Yposition Zposition Zrotation Xrotation Yrotation
          End Site
          {
            OFFSET 0 0 0
          }
        }
      }
    }
    JOINT L_momo
    {
      OFFSET 27.891 13.5892 3.92714
      CHANNELS 6 Xposition Yposition Zposition Zrotation Xrotation Yrotation
      JOINT L_hiza
      {
        OFFSET 0 28.0098 1.82319
        CHANNELS 6 Xposition Yposition Zposition Zrotation Xrotation Yrotation
        JOINT L_ashi
        {
          OFFSET 0 24.3992 -2.49171
          CHANNELS 6 Xposition Yposition Zposition Zrotation Xrotation Yrotation
          End Site
          {
            OFFSET 0 0 0
          }
        }
      }
    }
  }
  JOINT hara
  {
    OFFSET 0 2.15392 0
    CHANNELS 6 Xposition Yposition Zposition Zrotation Xrotation Yrotation
    JOINT mune
    {
      OFFSET 0 62.0609 0.472494
      CHANNELS 6 Xposition Yposition Zposition Zrotation Xrotation Yrotation
      JOINT R_kata
      {
        OFFSET 22.6695 9.65301 -5.3622
        CHANNELS 6 Xposition Yposition Zposition Zrotation Xrotation Yrotation
        JOINT R_hiji
        {
          OFFSET 0 25.813 1.69098
          CHANNELS 6 Xposition Yposition Zposition Zrotation Xrotation Yrotation
          JOINT R_te
          {
            OFFSET 0 28.5636 -0.966307
            CHANNELS 6 Xposition Yposition Zposition Zrotation Xrotation Yrotation
            End Site
            {
              OFFSET 0 0 0
            }
          }
        }
      }
      JOINT L_kata
      {
        OFFSET -22.6695 9.65298 -5.3622
        CHANNELS 6 Xposition Yposition Zposition Zrotation Xrotation Yrotation
        JOINT L_hiji
        {
          OFFSET 0 25.813 1.69102
          CHANNELS 6 Xposition Yposition Zposition Zrotation Xrotation Yrotation
          JOINT L_te
          {
            OFFSET 0 28.5636 -0.966295
            CHANNELS 6 Xposition Yposition Zposition Zrotation Xrotation Yrotation
            End Site
            {
              OFFSET 0 0 0
            }
          }
        }
      }
      JOINT kubi
      {
        OFFSET 0 23.1438 -0.944988
        CHANNELS 6 Xposition Yposition Zposition Zrotation Xrotation Yrotation
        JOINT atama
        {
          OFFSET 0 20.8625 4.12737
          CHANNELS 6 Xposition Yposition Zposition Zrotation Xrotation Yrotation
          JOINT ago
          {
            OFFSET 0 7.552 -7.58201
            CHANNELS 6 Xposition Yposition Zposition Zrotation Xrotation Yrotation
            End Site
            {
              OFFSET 0 0 0
            }
          }
        }
      }
    }
  }
}
MOTION
Frames:	8
Frame Time:	0.0333333
-0.00077409 26.5759 2.47654e-005 -90 -3.50835e-015 -90 0 0 0 -174.665 3.09315 0.502665 5.21541e-007 42.8363 -0.548138 2.9662 -15.9213 3.73722 1.87755e-006 44.0461 -3.28882 5.40198 9.40688 -5.26596 3.55271e-015 34.1929 -2.46661 6.42364 1.07548 -1.69364 -5.72205e-006 30.0959 -1.75403 6.02103 9.41346 -0.737177 -7.62939e-006 28.3637 -1.75404 9.42765 -5.81037 5.76663 1.52588e-005 31.6072 -3.2043 5.22091 -6.20244 -5.4175 -27.891 13.5892 3.92723 117.512 -18.6585 -48.4383 -7.10543e-015 28.01 1.8232 11.9986 -82.2915 -3.97131 -3.8147e-006 24.3992 -2.49173 -149.814 63.0231 -167.618 27.891 13.5892 3.92714 -102.24 -21.3434 59.4797 0 28.0098 1.82319 -3.57055 -68.5054 9.56586 1.14441e-005 24.3992 -2.49172 140.888 67.2563 166.772 6.07686e-007 2.15392 0 5.50559e-008 -0.414958 -5.50559e-008 1.75087e-005 62.0609 0.472494 -0 -7.59855e-017 -0 22.6695 9.65298 -5.3622 -148.43 2.7621 46.4825 -3.8147e-006 25.813 1.69098 179.965 -77.8726 179.749 -3.8147e-006 28.5636 -0.966313 40.9924 13.2104 -94.4096 -22.6695 9.65298 -5.3622 130.746 -5.35091 -52.4464 -1.14441e-005 25.813 1.69102 -179.768 -75.2937 -178.037 7.6294e-006 28.5636 -0.966306 -44.3268 34.5308 110.062 6.57609e-006 23.1438 -0.94499 5.18074e-007 -4.02575 -5.18074e-007 -0.00309498 20.8625 4.12737 -0.0325066 -4.00103 -0.131313 0 7.55202 -7.58201 -1.07925e-005 4.26462 1.07892e-005 
0.195834 26.6183 0.17097 -90 -3.50835e-015 -90 0 0 0 -174.633 2.97765 0.507044 5.21541e-007 42.8363 -0.548138 2.96191 -15.8523 3.73625 1.87735e-006 44.0461 -3.28882 5.38487 9.56542 -5.27591 4.39934e-009 34.1929 -2.46661 6.36833 1.08717 -1.69726 -5.71111e-006 30.0959 -1.75403 5.86058 9.41863 -0.733105 -7.61819e-006 28.3637 -1.75404 9.29546 -5.33433 5.68232 1.52352e-005 31.6072 -3.2043 5.15519 -5.89893 -5.55275 -27.891 13.5892 3.92723 117.291 -18.8909 -48.597 -1.62554e-008 28.01 1.8232 12.4304 -82.5932 -3.74271 -3.81084e-006 24.3992 -2.49173 -150.222 62.458 -167.421 27.891 13.5892 3.92714 -101.608 -21.4566 59.798 2.99156e-008 28.0098 1.82319 -3.40748 -67.5945 9.75442 1.14511e-005 24.3992 -2.49172 140.591 67.6301 167.024 6.07686e-007 2.15392 0 5.50559e-008 -0.414958 -5.50559e-008 1.75087e-005 62.0609 0.472494 -0 -7.59855e-017 -0 22.6695 9.65298 -5.3622 -149.006 2.45379 46.3909 -3.8147e-006 25.813 1.69098 179.963 -77.8643 179.69 -3.81701e-006 28.5636 -0.966313 40.9966 12.6428 -94.6475 -22.6695 9.65298 -5.3622 130.939 -5.4938 -52.3719 -1.14441e-005 25.813 1.69102 -179.77 -75.7797 -178.031 7.62676e-006 28.5636 -0.966306 -44.1413 33.9245 109.751 6.57609e-006 23.1438 -0.94499 -0.140179 -4.09543 -0.0614259 7.20045e-011 20.8625 4.12737 -0.122631 -4.15975 0.0288374 -7.80448e-009 7.55203 -7.58201 2.73376e-010 4.37025 -3.42725e-009 
0.388625 26.6598 0.338595 -90 -3.50835e-015 -90 0 0 0 -174.6 2.85832 0.51181 5.21541e-007 42.8363 -0.548138 2.95847 -15.797 3.73547 1.87718e-006 44.0461 -3.28882 5.36665 9.7347 -5.2864 9.03333e-009 34.1929 -2.46661 6.29184 1.10303 -1.70222 -5.69671e-006 30.0959 -1.75403 5.69393 9.42396 -0.729635 -7.60395e-006 28.3637 -1.75404 9.16607 -4.86486 5.60799 1.52146e-005 31.6072 -3.2043 5.09194 -5.67622 -5.67732 -27.891 13.5892 3.92723 117.074 -19.1151 -48.7535 -3.20981e-008 28.01 1.8232 12.8895 -82.8887 -3.48297 -3.80688e-006 24.3992 -2.49173 -150.604 61.9034 -167.244 27.891 13.5892 3.92714 -100.986 -21.5511 60.1141 5.92876e-008 28.0098 1.82319 -3.26018 -66.7011 9.92662 1.14576e-005 24.3992 -2.49172 140.286 67.9997 167.283 6.07686e-007 2.15392 -7.10543e-015 5.50559e-008 -0.414958 -5.50559e-008 1.75033e-005 62.0609 0.472494 -0 -7.59855e-017 -0 22.6695 9.65298 -5.3622 -149.573 2.14599 46.2945 -3.8147e-006 25.813 1.69098 179.958 -77.8505 179.59 -3.82091e-006 28.5636 -0.966313 41.0054 12.0848 -94.8815 -22.6695 9.65298 -5.3622 131.133 -5.63821 -52.2962 -1.14441e-005 25.813 1.69102 -179.773 -76.2595 -178.025 7.6241e-006 28.5636 -0.966306 -43.968 33.3301 109.45 6.57409e-006 23.1438 -0.94499 -0.217565 -4.2415 0.0381928 1.19185e-010 20.8625 4.12737 -0.215769 -4.24172 0.0232647 -1.30805e-008 7.55203 -7.58201 -7.82192e-007 4.46621 1.00449e-005 
0.583324 26.7018 0.50788 -90 -3.50835e-015 -90 0 0 0 -174.57 2.75056 0.516189 5.21541e-007 42.8363 -0.548138 2.95421 -15.7286 3.73452 1.87699e-006 44.0461 -3.28882 5.34875 9.9011 -5.29666 1.3701e-008 34.1929 -2.46661 6.23726 1.11456 -1.70565 -5.68559e-006 30.0959 -1.75403 5.5256 9.42926 -0.726135 -7.5919e-006 28.3637 -1.75404 9.03455 -4.30854 5.51528 1.51902e-005 31.6072 -3.2043 5.05696 -5.36844 -5.81016 -27.891 13.5892 3.92723 116.854 -19.3376 -48.9123 -4.79959e-008 28.01 1.8232 13.4 -83.19 -3.17622 -3.80263e-006 24.3992 -2.49173 -150.971 61.3426 -167.082 27.891 13.5892 3.92714 -100.359 -21.6296 60.4354 8.88264e-008 28.0098 1.82319 -3.12263 -65.7987 10.0892 1.14634e-005 24.3992 -2.49172 139.965 68.3721 167.556 6.07686e-007 2.15392 0 4.71261e-008 -0.355006 -4.71261e-008 -0.0523794 62.0609 0.472494 -2.01132e-039 -7.59855e-017 -1.51661e-021 22.6631 9.67206 -5.35492 -150.095 1.84104 46.2069 -3.8147e-006 25.813 1.69098 179.956 -77.8423 179.532 -3.82318e-006 28.5636 -0.966313 41.0191 11.5224 -95.1177 -22.6759 9.63389 -5.36948 131.376 -5.79673 -52.2078 -1.14441e-005 25.813 1.69102 -179.777 -76.7406 -178.02 7.62139e-006 28.5636 -0.966306 -43.8004 32.7269 109.149 -0.0191732 23.1438 -0.94499 -0.312393 -4.38542 0.00978645 1.19184e-010 20.8625 4.12737 -0.304172 -4.31911 0.130034 -2.04496e-008 7.55203 -7.58201 2.85246e-010 4.5849 -3.45719e-009 
0.779933 26.7442 0.678825 -90 -3.50835e-015 -90 0 0 0 -174.534 2.61747 0.521646 5.21541e-007 42.8363 -0.548138 2.94998 -15.6597 3.73351 1.87678e-006 44.0461 -3.28882 5.33169 10.0597 -5.30629 1.82005e-008 34.1929 -2.46661 6.15038 1.13265 -1.71108 -5.66943e-006 30.0959 -1.75403 5.35559 9.43454 -0.722217 -7.57536e-006 28.3637 -1.75404 8.90533 -3.83056 5.44431 1.51721e-005 31.6072 -3.2043 4.99272 -5.14119 -5.88651 -27.891 13.5892 3.92723 116.625 -19.5637 -49.0772 -6.43211e-008 28.01 1.8232 13.9568 -83.4902 -2.82279 -3.7984e-006 24.3992 -2.49173 -151.329 60.7725 -166.932 27.891 13.5892 3.92714 -99.7286 -21.6912 60.7613 1.18504e-007 28.0098 1.82319 -2.99414 -64.8891 10.2427 1.14687e-005 24.3992 -2.49172 139.633 68.7433 167.841 6.07686e-007 2.15392 0 4.70872e-008 -0.354713 -4.70872e-008 -0.0526459 62.0609 0.472494 -1.51661e-021 -7.59855e-017 3.03321e-021 22.6631 9.67216 -5.3549 -150.669 1.5199 46.096 -3.8147e-006 25.813 1.69098 179.952 -77.8307 179.45 -3.82644e-006 28.5636 -0.966313 41.0377 10.9567 -95.3555 -22.6759 9.63379 -5.3695 131.568 -5.94171 -52.1309 -1.14441e-005 25.813 1.69102 -179.78 -77.2299 -178.014 7.61859e-006 28.5636 -0.966306 -43.6407 32.1204 108.852 -0.0192715 23.1438 -0.94499 -0.382422 -4.45743 0.114439 1.19184e-010 20.8625 4.12737 -0.486971 -4.47806 0.11635 -3.06759e-008 7.55203 -7.58201 -1.08732e-005 4.69068 1.087e-005 
0.972723 26.7858 0.84645 -90 -3.50835e-015 -90 0 0 0 -174.503 2.50428 0.526377 5.21541e-007 42.8363 -0.548138 2.94654 -15.6044 3.73274 1.87662e-006 44.0461 -3.28882 5.31304 10.2334 -5.31679 2.30621e-008 34.1929 -2.46661 6.09631 1.14393 -1.71447 -5.65814e-006 30.0959 -1.75403 5.18881 9.43964 -0.718028 -7.56263e-006 28.3637 -1.75404 8.83923 -3.3584 5.3733 1.51562e-005 31.6072 -3.2043 4.95999 -4.91578 -6.00823 -27.891 13.5892 3.92723 116.399 -19.7831 -49.241 -8.03503e-008 28.01 1.8232 14.5584 -83.7855 -2.42182 -3.79411e-006 24.3992 -2.49173 -151.664 60.2131 -166.799 27.891 13.5892 3.92714 -99.2355 -21.6853 60.9613 1.40293e-007 28.0098 1.82319 -2.87683 -63.9953 10.3846 1.14739e-005 24.3992 -2.49172 139.289 69.1121 168.136 6.07686e-007 2.15392 -3.55271e-015 5.94656e-008 -0.32506 -4.82777e-008 -0.0796282 62.0609 0.472494 -1.51661e-021 -3.8295e-017 -1.51661e-021 22.6594 9.68199 -5.35249 -151.207 1.2038 45.9861 -3.8147e-006 25.813 1.69098 179.948 -77.818 179.359 -3.83001e-006 28.5636 -0.966313 41.0606 10.4031 -95.588 -22.6795 9.62395 -5.37191 131.786 -6.09269 -52.0487 -1.14441e-005 25.813 1.69102 -179.783 -77.7064 -178.009 7.61581e-006 28.5636 -0.966306 -43.4913 31.524 108.563 -0.0292145 23.1438 -0.94499 -0.429948 -4.60213 0.104037 1.19184e-010 20.8625 4.12737 -0.576634 -4.55599 0.218965 -3.80152e-008 7.55203 -7.58201 3.00362e-010 4.80149 -3.46479e-009 
1.16742 26.8278 1.01574 -90 -3.50835e-015 -90 0 0 0 -174.473 2.39654 0.531058 5.21541e-007 42.8363 -0.548138 2.94164 -15.5254 3.73167 1.87639e-006 44.0461 -3.28882 5.29569 10.3951 -5.3264 2.77798e-008 34.1929 -2.46661 6.00999 1.16211 -1.71973 -5.64172e-006 30.0959 -1.75403 5.02527 9.44454 -0.714917 -7.54534e-006 28.3637 -1.75404 8.71237 -2.88538 5.3001 1.51398e-005 31.6072 -3.2043 4.89579 -4.68799 -6.13383 -27.891 13.5892 3.92723 116.171 -19.9992 -49.4059 -9.63124e-008 28.01 1.8232 15.2272 -84.0831 -1.95562 -3.7896e-006 24.3992 -2.49173 -151.987 59.6478 -166.678 27.891 13.5892 3.92714 -98.7434 -21.669 61.1625 1.62137e-007 28.0098 1.82319 -2.7665 -63.0925 10.5196 1.14783e-005 24.3992 -2.49172 138.931 69.4797 168.443 6.07686e-007 2.15392 -3.55271e-015 0.109632 -0.283772 -0.0343923 -4.26707e-008 62.0609 0.472494 -2.48481e-017 -9.15339e-016 -6.21202e-018 22.6695 9.65298 -5.3622 -151.842 1.14004 45.696 -3.8147e-006 25.813 1.69098 179.944 -77.8065 179.277 -3.83325e-006 28.5636 -0.966313 41.0883 9.84281 -95.8235 -22.6695 9.65297 -5.3622 131.914 -6.13407 -51.8871 -1.14441e-005 25.813 1.69102 -179.787 -78.1909 -178.005 7.61293e-006 28.5636 -0.966306 -43.3478 30.92 108.274 -1.56553e-008 23.1438 -0.94499 -0.638492 -4.67149 0.116905 1.19184e-010 20.8625 4.12737 -0.671275 -4.63815 0.213264 -4.33013e-008 7.55203 -7.58201 3.07839e-010 4.8984 -3.46784e-009 
1.36403 26.8702 1.18668 -90 -3.50835e-015 -90 0 0 0 -174.439 2.27491 0.5367 5.21541e-007 42.8363 -0.548138 2.93819 -15.4689 3.7309 1.87622e-006 44.0461 -3.28882 5.27771 10.5632 -5.33629 3.25575e-008 34.1929 -2.46661 5.9547 1.17354 -1.72317 -5.63013e-006 30.0959 -1.75403 4.85536 9.44957 -0.711311 -7.53168e-006 28.3637 -1.75404 8.64624 -2.48485 5.24955 1.51275e-005 31.6072 -3.2043 4.86269 -4.45775 -6.20682 -27.891 13.5892 3.92723 115.935 -20.2185 -49.5771 -1.12699e-007 28.01 1.8232 15.9699 -84.3808 -1.41635 -3.78511e-006 24.3992 -2.49173 -152.299 59.0768 -166.569 27.891 13.5892 3.92714 -98.2473 -21.6418 61.3667 1.84254e-007 28.0098 1.82319 -2.66318 -62.1895 10.6476 1.14823e-005 24.3992 -2.49172 138.556 69.8499 168.767 6.07686e-007 2.15392 3.55271e-015 0.109987 -0.283362 -0.0344733 -1.81877e-012 62.0609 0.472494 4.96962e-017 2.1316e-015 -0 22.6695 9.65298 -5.3622 -152.412 1.08675 45.4227 -3.8147e-006 25.813 1.69098 179.942 -77.7983 179.219 -3.83557e-006 28.5636 -0.966313 41.1216 9.28658 -96.0632 -22.6695 9.65297 -5.3622 132.119 -6.19345 -51.7063 -1.14441e-005 25.813 1.69102 -179.792 -78.6769 -178 7.61001e-006 28.5636 -0.966306 -43.2115 30.3129 107.988 -1.81899e-012 23.1438 -0.94499 -0.713794 -4.74569 0.109719 1.19184e-010 20.8625 4.12737 -0.761813 -4.71703 0.203898 -4.82545e-008 7.55203 -7.58201 -8.61374e-010 5.01133 1.00004e-008 
